<svg width="1148" height="232" viewBox="0 0 1148 232" fill="none" xmlns="http://www.w3.org/2000/svg">
<path d="M132.809 221.571C150.041 264.177 141.15 306.941 126.44 340.679L125.735 342.279C118.272 359.036 109.52 373.062 102.666 382.887L102.652 382.906L102.639 382.926C100.062 386.776 97.6307 390.056 95.7817 392.489C92.8359 392.206 89.1481 391.72 84.7072 391.116C73.3708 389.354 57.742 385.892 40.9865 379.634C7.50094 366.757 -29.8097 342.24 -48.8914 295.062C-67.9731 247.884 -58.1972 204.323 -43.0793 171.788L-43.0789 171.789C-35.378 155.625 -26.5406 142.261 -19.6141 133.112C-16.7602 129.404 -14.2982 126.388 -12.326 124.102C-9.31901 124.374 -5.45276 124.83 -0.823314 125.512C10.5159 127.273 26.1597 130.734 42.9321 136.999C76.4175 149.877 113.727 174.393 132.809 221.571ZM123.539 225.321C105.845 181.576 71.2697 158.622 39.3884 146.352L39.377 146.347L39.3646 146.343C23.3927 140.383 8.4765 137.079 -2.29974 135.402L-2.31062 135.401L-2.32097 135.399C-3.87181 135.171 -5.32486 134.97 -6.67682 134.795L-8.07405 134.614L-8.95279 135.716C-9.80288 136.781 -10.7076 137.936 -11.6638 139.178L-11.6698 139.187L-11.677 139.195C-18.2572 147.892 -26.6824 160.637 -34.0203 176.024L-34.0318 176.048C-48.4187 207.031 -57.3139 247.568 -39.621 291.313C-21.9278 335.058 12.6482 358.013 44.5296 370.282L44.541 370.287L44.5534 370.292C60.4855 376.236 75.367 379.539 86.1368 381.22L86.1615 381.223L86.1858 381.226C87.4346 381.396 88.6025 381.553 89.6935 381.697L91.1924 381.895L92.0639 380.658C92.4304 380.138 92.8037 379.603 93.1815 379.054L94.3278 377.364L94.4088 377.244L94.4642 377.165C101.065 367.703 109.463 354.236 116.601 338.21L116.601 338.209C131.16 305.499 139.619 265.078 123.539 225.321Z" stroke="#FFF370" stroke-width="5"/>
<path d="M687.501 184.5C733.893 184.5 771.501 222.108 771.501 268.5C771.501 314.892 733.893 352.5 687.501 352.5C641.109 352.5 603.501 314.892 603.501 268.5C603.501 222.108 641.109 184.5 687.501 184.5Z" stroke="#FFF370" stroke-width="5"/>
<path d="M1119.52 205.888H1029V257H1119.52C1153.55 252.049 1165.95 242.306 1170 205.888V116H1119.52V205.888Z" stroke="#FFF370" stroke-width="5"/>
<circle cx="140.661" cy="51.198" r="4.5" transform="rotate(27.1384 140.661 51.198)" fill="#FFF370" stroke="#FFF370"/>
<circle cx="208.106" cy="59.9231" r="4.5" transform="rotate(27.1384 208.106 59.9231)" fill="#FFF370" stroke="#FFF370"/>
<circle cx="239.74" cy="116.591" r="4.5" transform="rotate(27.1384 239.74 116.591)" fill="#FFF370" stroke="#FFF370"/>
<line x1="210.297" y1="61.9097" x2="239.311" y2="116.345" stroke="#FFF370" stroke-width="3"/>
<line x1="143.519" y1="51.0783" x2="204.713" y2="58.8465" stroke="#FFF370" stroke-width="3"/>
<circle cx="358.035" cy="104.649" r="4.5" transform="rotate(167.856 358.035 104.649)" fill="#FFF370" stroke="#FFF370"/>
<circle cx="300.306" cy="140.597" r="4.5" transform="rotate(167.856 300.306 140.597)" fill="#FFF370" stroke="#FFF370"/>
<circle cx="239.941" cy="116.763" r="4.5" transform="rotate(167.856 239.941 116.763)" fill="#FFF370" stroke="#FFF370"/>
<line x1="297.352" y1="140.447" x2="240.429" y2="116.682" stroke="#FFF370" stroke-width="3"/>
<line x1="355.898" y1="106.551" x2="303.614" y2="139.283" stroke="#FFF370" stroke-width="3"/>
<circle cx="984.859" cy="26.3942" r="4.5" transform="rotate(66.8106 984.859 26.3942)" fill="#FFF370" stroke="#FFF370"/>
<circle cx="973.031" cy="90.2072" r="4.5" transform="rotate(66.8106 973.031 90.2072)" fill="#FFF370" stroke="#FFF370"/>
<line x1="985.278" y1="29.3221" x2="972.858" y2="89.7436" stroke="#FFF370" stroke-width="3"/>
<line x1="940.793" y1="-21.6455" x2="982.935" y2="23.3994" stroke="#FFF370" stroke-width="3"/>
</svg>
