<svg width="495" height="399" viewBox="0 0 495 399" fill="none" xmlns="http://www.w3.org/2000/svg">
<path d="M235.106 274.34C317.653 311.093 362.754 384.254 387.228 451.556C399.299 484.776 405.926 515.92 409.565 538.693L409.569 538.717L409.574 538.741C411.271 548.191 412.327 556.497 413.018 562.454C408.403 566.177 402.295 570.697 394.86 576.146C376.773 588.881 350.452 605.009 318.812 618.764C255.124 645.728 170.329 661.754 80.4371 621.732C-9.45496 581.709 -54.2853 507.97 -76.8626 442.598C-87.4697 410.904 -93.0812 381.429 -95.8201 359.65L-96.0769 357.566C-97.1496 348.001 -97.7832 340.11 -98.0882 334.12C-93.4325 330.338 -87.1446 325.529 -79.3181 319.925C-61.231 307.19 -34.9107 291.061 -3.27075 277.306C60.4174 250.341 145.214 234.317 235.106 274.34ZM225.446 296.038C143.587 259.592 66.0392 273.777 6.0964 299.134L6.0724 299.144C-23.7232 312.11 -48.5595 327.324 -65.5527 339.282L-65.5607 339.288L-65.5696 339.294C-68.002 341.036 -70.2626 342.686 -72.3495 344.236L-73.4804 345.076L-73.3481 346.478C-73.1034 349.066 -72.8171 351.85 -72.4842 354.824L-72.4824 354.834L-72.4815 354.844C-69.9969 375.474 -64.6851 404.112 -54.3832 434.93L-54.3792 434.943L-54.3747 434.954C-33.1088 496.467 8.23886 563.588 90.0975 600.034C171.956 636.48 249.504 622.295 309.447 596.938L309.471 596.927C339.192 583.994 363.978 568.823 380.967 556.879L380.987 556.865L381.007 556.851C382.955 555.424 384.772 554.088 386.465 552.837L387.68 551.938L387.45 550.444C387.079 548.05 386.663 545.539 386.196 542.939L386.148 542.668L386.112 542.441C382.639 520.706 376.327 491.101 364.905 459.668L363.797 456.658C340.246 393.409 298.586 328.602 225.446 296.038Z" stroke="#1B0066" stroke-opacity="0.5" stroke-width="5"/>
<path d="M0 20C133.101 20 241 127.899 241 261C241 394.101 133.101 502 0 502C-133.101 502 -241 394.101 -241 261C-241 127.899 -133.101 20 0 20Z" stroke="#1B0066" stroke-opacity="0.5" stroke-width="40"/>
</svg>
