<svg width="441" height="434" viewBox="0 0 441 434" fill="none" xmlns="http://www.w3.org/2000/svg">
<path d="M595.5 -187.5C761.185 -187.5 895.5 -53.1854 895.5 112.5C895.5 278.185 761.185 412.5 595.5 412.5C429.815 412.5 295.5 278.185 295.5 112.5C295.5 -53.1854 429.815 -187.5 595.5 -187.5Z" stroke="#1B0066" stroke-opacity="0.5" stroke-width="43"/>
<path d="M414.105 -150.66C496.653 -113.907 541.754 -40.7458 566.228 26.5562C578.299 59.7758 584.925 90.9197 588.564 113.693L588.569 113.717L588.573 113.741C590.27 123.191 591.327 131.497 592.017 137.454C587.403 141.177 581.294 145.697 573.86 151.146C555.773 163.881 529.452 180.009 497.812 193.764C434.124 220.728 349.329 236.754 259.437 196.732C169.545 156.709 124.714 82.9705 102.137 17.5982C91.5298 -14.0963 85.9183 -43.5712 83.1795 -65.3502L82.9226 -67.4336C81.8499 -76.9993 81.2163 -84.89 80.9113 -90.8803C85.5671 -94.6619 91.8549 -99.471 99.6814 -105.075C117.768 -117.81 144.089 -133.939 175.729 -147.694C239.417 -174.659 324.213 -190.683 414.105 -150.66ZM404.445 -128.962C322.586 -165.408 245.039 -151.223 185.096 -125.866L185.072 -125.856C155.276 -112.89 130.44 -97.6755 113.447 -85.7182L113.439 -85.7121L113.43 -85.7065C110.997 -83.9643 108.737 -82.3142 106.65 -80.7644L105.519 -79.9242L105.651 -78.5216C105.896 -75.9336 106.182 -73.1497 106.515 -70.1762L106.517 -70.1658L106.518 -70.1558C109.003 -49.5263 114.314 -20.8884 124.616 9.93001L124.62 9.94251L124.625 9.95411C145.891 71.4673 187.238 138.588 269.097 175.034C350.956 211.48 428.503 197.295 488.446 171.938L488.47 171.927C518.191 158.994 542.977 143.823 559.967 131.879L559.987 131.865L560.007 131.851C561.954 130.424 563.771 129.088 565.464 127.837L566.68 126.938L566.449 125.444C566.079 123.05 565.662 120.539 565.195 117.939L565.147 117.668L565.111 117.441C561.638 95.706 555.327 66.1011 543.904 34.6681L542.797 31.6575C519.246 -31.5914 477.585 -96.3983 404.445 -128.962Z" stroke="#1B0066" stroke-opacity="0.5" stroke-width="5"/>
</svg>
