<svg width="79" height="60" viewBox="0 0 79 60" fill="none" xmlns="http://www.w3.org/2000/svg">
<path d="M40.9729 32.72V34.6714H45.3916C47.6708 35.1154 48.1595 35.7686 48.4712 37.2223L49.2746 44.338C48.4321 45.1027 47.8617 45.1466 46.7305 44.6066L45.9272 37.6251C45.8022 37.5134 45.675 37.4546 45.3916 37.3566H34.4119C33.9259 37.3203 33.6989 37.3935 33.4746 37.8936L33.0729 44.6066C31.9382 45.0148 31.3471 45.0292 30.395 44.4723L30.9306 36.9538C31.4962 35.3785 32.1588 34.9399 33.7424 34.6714H38.295L38.1611 27.5556L33.7424 28.044C32.868 28.0295 32.4469 27.8884 31.7339 27.5556C30.7891 27.1166 30.3829 26.6041 29.9933 24.2724L29.8594 21.7214C30.7706 20.96 31.3995 20.9372 32.5373 21.7214V22.6158M40.9729 29.3635V27.5556L45.9272 28.044C47.3245 27.8782 47.8195 27.5441 48.3373 26.6158L49.2746 23.6621V21.7214C48.1678 20.91 47.4623 20.9095 46.5966 21.7214V23.5279C46.4816 24.4304 46.3341 24.8981 45.6594 25.5417L39.6339 24.8704L33.7424 25.5417C33.0623 25.4647 32.8223 25.0781 32.7179 24.1274" stroke="#1B0066" stroke-linecap="round"/>
<path d="M29.0558 20.7237C28.8072 20.7237 28.6058 20.9252 28.6058 21.1737C28.6058 21.4222 28.8072 21.6237 29.0558 21.6237L29.0558 20.7237ZM51.2829 21.1737V21.6237L51.7329 21.6237V21.1737H51.2829ZM27.7168 24.3959L28.0389 24.7101L28.1668 24.579V24.3959H27.7168ZM24.6371 24.3959H24.1871V24.5873L24.3249 24.72L24.6371 24.3959ZM24.6371 16.4747L24.3185 16.1569L24.1871 16.2886V16.4747H24.6371ZM27.7168 16.4747H28.1668V16.2773L28.0215 16.1436L27.7168 16.4747ZM23.9676 24.3089C24.2162 24.3089 24.4176 24.1074 24.4176 23.8589C24.4176 23.6104 24.2162 23.4089 23.9676 23.4089V24.3089ZM23.0303 23.8589H22.5803C22.5803 24.1074 22.7818 24.3089 23.0303 24.3089V23.8589ZM23.0303 16.8774V16.4274C22.7818 16.4274 22.5803 16.6289 22.5803 16.8774H23.0303ZM23.9676 17.3274C24.2162 17.3274 24.4176 17.126 24.4176 16.8774C24.4176 16.6289 24.2162 16.4274 23.9676 16.4274V17.3274ZM21.1558 19.0256V18.5756C20.9072 18.5756 20.7058 18.7771 20.7058 19.0256H21.1558ZM21.1558 22.3821H20.7058L21.1558 22.832V22.3821ZM21.8253 22.832C22.0738 22.832 22.2753 22.6306 22.2753 22.3821C22.2753 22.1335 22.0738 21.932 21.8253 21.932V22.832ZM51.2829 16.4747L50.9641 16.157L50.8329 16.2887V16.4747H51.2829ZM54.3625 16.4746H54.8125V16.2835L54.675 16.1508L54.3625 16.4746ZM54.3625 24.3959L54.6808 24.714L54.8125 24.5823V24.3959H54.3625ZM51.2829 24.3959H50.8329V24.5925L50.9771 24.7261L51.2829 24.3959ZM51.7329 22.7848C51.7329 22.5363 51.5314 22.3348 51.2829 22.3348C51.0344 22.3348 50.8329 22.5363 50.8329 22.7848H51.7329ZM55.032 16.4274C54.7835 16.4274 54.582 16.6289 54.582 16.8774C54.582 17.1259 54.7835 17.3274 55.032 17.3274V16.4274ZM56.1032 16.8774H56.5532V16.4274H56.1032V16.8774ZM56.1032 23.8588V24.3088H56.5532V23.8588H56.1032ZM55.032 23.4088C54.7835 23.4088 54.582 23.6103 54.582 23.8588C54.582 24.1074 54.7835 24.3088 55.032 24.3088V23.4088ZM57.71 19.0256H58.16C58.16 18.7771 57.9585 18.5756 57.71 18.5756V19.0256ZM57.71 22.382V22.832L58.16 22.382H57.71ZM57.0405 18.5756C56.792 18.5756 56.5905 18.7771 56.5905 19.0256C56.5905 19.2741 56.792 19.4756 57.0405 19.4756V18.5756ZM42.3117 20.7237C42.0632 20.7237 41.8617 20.9252 41.8617 21.1737C41.8617 21.4222 42.0632 21.6237 42.3117 21.6237L42.3117 20.7237ZM42.0439 19.3811C41.7954 19.3811 41.5939 19.5825 41.5939 19.8311C41.5939 20.0796 41.7954 20.2811 42.0439 20.2811V19.3811ZM36.4202 21.6237C36.6687 21.6237 36.8702 21.4222 36.8702 21.1737C36.8702 20.9251 36.6687 20.7237 36.4202 20.7237L36.4202 21.6237ZM36.688 20.2811C36.9365 20.2811 37.138 20.0796 37.138 19.8311C37.138 19.5825 36.9365 19.3811 36.688 19.3811L36.688 20.2811ZM51.2829 21.1737H51.7329V19.8311H51.2829H50.8329V21.1737H51.2829ZM27.7168 19.8311H27.2668V24.3959H27.7168H28.1668V19.8311H27.7168ZM27.7168 24.3959L27.3946 24.0818C26.9879 24.4988 26.7123 24.7734 26.4959 24.944C26.2773 25.1163 26.1965 25.1182 26.1752 25.117C26.142 25.1152 26.0526 25.0936 25.8288 24.9056C25.6092 24.721 25.3467 24.4547 24.9493 24.0719L24.6371 24.3959L24.3249 24.72C24.6938 25.0754 24.999 25.3838 25.2498 25.5946C25.4966 25.8019 25.7805 25.9965 26.1252 26.0157C26.4817 26.0355 26.7833 25.8634 27.053 25.6508C27.3249 25.4365 27.6437 25.1154 28.0389 24.7101L27.7168 24.3959ZM24.6371 24.3959H25.0871V16.4747H24.6371H24.1871V24.3959H24.6371ZM24.6371 16.4747L24.9558 16.7924C25.333 16.4141 25.581 16.1564 25.7867 15.983C25.9936 15.8086 26.075 15.7943 26.1048 15.7934C26.1365 15.7925 26.2281 15.8037 26.4619 15.976C26.6915 16.1453 26.9831 16.4111 27.4121 16.8059L27.7168 16.4747L28.0215 16.1436C27.6068 15.7619 27.274 15.4566 26.996 15.2516C26.7222 15.0498 26.423 14.8836 26.0781 14.8938C25.7313 14.9041 25.4504 15.0894 25.2067 15.2948C24.9618 15.5012 24.6709 15.8035 24.3185 16.1569L24.6371 16.4747ZM27.7168 16.4747H27.2668V19.8311H27.7168H28.1668V16.4747H27.7168ZM23.9676 23.8589V23.4089H23.0303V23.8589V24.3089H23.9676V23.8589ZM23.0303 16.8774V17.3274H23.9676V16.8774V16.4274H23.0303V16.8774ZM23.0303 23.8589H23.4803V19.0256H23.0303H22.5803V23.8589H23.0303ZM23.0303 19.0256H23.4803V16.8774H23.0303H22.5803V19.0256H23.0303ZM23.0303 19.0256V18.5756H21.1558V19.0256V19.4756H23.0303V19.0256ZM21.1558 19.0256H20.7058V22.3821H21.1558H21.6058V19.0256H21.1558ZM21.1558 22.3821V22.832H21.8253V22.3821V21.932H21.1558V22.3821ZM51.2829 19.8311H51.7329V16.4747H51.2829H50.8329V19.8311H51.2829ZM51.2829 16.4747L51.6016 16.7923C51.7968 16.5965 51.9625 16.4215 52.1043 16.2715C52.2484 16.119 52.3621 15.9985 52.4621 15.9009C52.6816 15.6866 52.7435 15.6813 52.7426 15.6814C52.7297 15.6826 52.7915 15.666 53.0376 15.861C53.272 16.0468 53.58 16.3449 54.0501 16.7985L54.3625 16.4746L54.675 16.1508C54.2223 15.714 53.8745 15.3759 53.5966 15.1556C53.3304 14.9447 53.0236 14.7525 52.6621 14.785C52.3126 14.8164 52.0459 15.0495 51.8335 15.2568C51.7174 15.37 51.5893 15.5061 51.4502 15.6533C51.3089 15.8028 51.1502 15.9703 50.9641 16.157L51.2829 16.4747ZM54.3625 16.4746H53.9125V24.3959H54.3625H54.8125V16.4746H54.3625ZM54.3625 24.3959L54.0443 24.0778C53.6211 24.5011 53.3536 24.7831 53.1383 24.9709C53.0341 25.0619 52.9635 25.1111 52.9143 25.1371C52.8914 25.1492 52.8771 25.154 52.87 25.156C52.8665 25.1569 52.8644 25.1572 52.8636 25.1573C52.8627 25.1574 52.8624 25.1574 52.8623 25.1574C52.8596 25.1574 52.7901 25.1551 52.5501 24.9541C52.3194 24.7608 52.0365 24.4805 51.5887 24.0658L51.2829 24.3959L50.9771 24.7261C51.3908 25.1092 51.7193 25.4322 51.9722 25.644C52.2158 25.8481 52.5021 26.0525 52.8497 26.0574C53.2064 26.0623 53.4915 25.8572 53.73 25.6491C53.9762 25.4343 54.2868 25.1082 54.6808 24.714L54.3625 24.3959ZM51.2829 24.3959H51.7329V22.7848H51.2829H50.8329V24.3959H51.2829ZM55.032 16.8774V17.3274H56.1032V16.8774V16.4274H55.032V16.8774ZM56.1032 23.8588V23.4088H55.032V23.8588V24.3088H56.1032V23.8588ZM56.1032 16.8774H55.6532V19.0256H56.1032H56.5532V16.8774H56.1032ZM57.71 19.0256H57.26V22.382H57.71H58.16V19.0256H57.71ZM56.1032 19.0256H55.6532V22.382H56.1032H56.5532V19.0256H56.1032ZM56.1032 22.382H55.6532V23.8588H56.1032H56.5532V22.382H56.1032ZM57.71 22.382V21.932H56.1032V22.382V22.832H57.71V22.382ZM57.71 19.0256V18.5756H57.0405V19.0256V19.4756H57.71V19.0256ZM42.3117 21.1737L42.3117 21.6237L51.2829 21.6237V21.1737L51.2829 20.7237L42.3117 20.7237V21.1737ZM51.2829 19.8311V19.3811H42.0439V19.8311V20.2811H51.2829V19.8311ZM29.0558 21.1737L29.0558 21.6237L36.4202 21.6237L36.4202 21.1737L36.4202 20.7237L29.0558 20.7237L29.0558 21.1737ZM36.688 19.8311V19.3811L27.7168 19.3811L27.7168 19.8311L27.7168 20.2811L36.688 20.2811L36.688 19.8311Z" fill="#1B0066"/>
<path d="M39.3662 18.1829C40.9374 18.183 42.2138 19.4605 42.2139 21.0393C42.2139 22.6181 40.9375 23.8956 39.3662 23.8958C37.7949 23.8958 36.5186 22.6182 36.5186 21.0393C36.5186 19.4605 37.7949 18.1829 39.3662 18.1829Z" stroke="#1B0066"/>
<path d="M39.5215 3.64819C51.6956 3.64819 61.3461 9.99413 68.2412 16.9402L68.8994 17.614C72.3196 21.1689 74.9296 24.7688 76.6846 27.4705L76.6895 27.4783C77.4157 28.5506 78.0046 29.5217 78.4277 30.2371C78.0557 30.9599 77.5509 31.86 76.9326 32.9441C75.352 35.5975 72.9146 39.1524 69.666 42.7068C63.0869 49.7676 53.2125 56.6208 39.5215 56.6208C25.8301 56.6208 15.9551 49.7677 9.37598 42.7068H9.37695C6.53431 39.5966 4.31292 36.486 2.74316 33.9792L2.11035 32.9441C1.4515 31.818 0.936529 30.87 0.561523 30.1335C0.936442 29.3973 1.45195 28.4503 2.11035 27.325C3.69096 24.6715 6.1283 21.1157 9.37695 17.5613L9.37598 17.5603C15.9551 10.4996 25.8307 3.64821 39.5215 3.64819ZM39.5215 6.67554C26.9466 6.67556 17.8181 12.9396 11.5908 19.6189L11.5869 19.6228C8.51281 22.9886 6.20159 26.3595 4.70801 28.865L4.70605 28.8679C4.49417 29.2302 4.29885 29.5714 4.12012 29.8894L3.98242 30.1345L4.12012 30.3796C4.29879 30.6976 4.49425 31.038 4.70605 31.4001L4.70801 31.4041C6.20163 33.9096 8.51277 37.2804 11.5869 40.6462L11.5908 40.6501C17.8181 47.3294 26.9467 53.5925 39.5215 53.5925C52.0965 53.5925 61.2258 47.3295 67.4531 40.6501L67.4561 40.6462C70.5226 37.2888 72.8303 33.9262 74.3242 31.4226L74.3291 31.4138C74.4965 31.1203 74.6528 30.8454 74.7979 30.5886L74.9463 30.3269L74.7832 30.073C74.5992 29.7868 74.4024 29.4876 74.1943 29.1804L74.1719 29.1482L74.1572 29.1238C72.4752 26.5345 69.9809 23.098 66.7285 19.7175V19.7166C60.0866 12.8164 50.9422 6.67554 39.5215 6.67554Z" stroke="#1B0066"/>
<path d="M8.11978 55.1065H14.9965V59H8.11978C5.53429 58.6229 4.59238 57.8807 4.28467 55.1065V48.2593H8.11978V55.1065Z" stroke="#1B0066"/>
<path d="M8.11978 4.8935H14.9965V0.999983H8.11978C5.53429 1.37712 4.59238 2.11927 4.28467 4.8935V11.7407H8.11978V4.8935Z" stroke="#1B0066"/>
<path d="M70.8802 4.8935H64.0035V0.999983H70.8802C73.4657 1.37712 74.4076 2.11927 74.7153 4.8935V11.7407H70.8802V4.8935Z" stroke="#1B0066"/>
<path d="M70.8802 55.1065H64.0035V59H70.8802C73.4657 58.6229 74.4076 57.8807 74.7153 55.1065V48.2593H70.8802V55.1065Z" stroke="#1B0066"/>
</svg>
