<svg width="570" height="421" viewBox="0 0 570 421" fill="none" xmlns="http://www.w3.org/2000/svg">
<path d="M295.627 230.056V244.085H327.508C343.953 247.278 347.48 251.974 349.728 262.426L355.525 313.585C349.446 319.083 345.331 319.399 337.169 315.516L331.372 265.322C330.471 264.519 329.553 264.096 327.508 263.391H248.288C244.781 263.131 243.144 263.656 241.525 267.252L238.627 315.516C230.44 318.451 226.174 318.555 219.305 314.551L223.169 260.495C227.25 249.17 232.031 246.016 243.457 244.085H276.305L275.339 192.926L243.457 196.437C237.148 196.333 234.11 195.318 228.966 192.926C222.148 189.769 219.218 186.085 216.407 169.32L215.44 150.98C222.015 145.505 226.553 145.342 234.762 150.98V157.41M295.627 205.924V192.926L331.372 196.437C341.455 195.245 345.026 192.843 348.762 186.169L355.525 164.933V150.98C347.539 145.146 342.449 145.142 336.203 150.98V163.967C335.373 170.457 334.309 173.819 329.44 178.447L285.966 173.62L243.457 178.447C238.55 177.892 236.818 175.113 236.065 168.278" stroke="#1B0066" stroke-width="4.5" stroke-linecap="round"/>
<path d="M209.644 145.042C208.539 145.042 207.644 145.937 207.644 147.042C207.644 148.147 208.539 149.042 209.644 149.042L209.644 145.042ZM370.017 147.042L370.017 149.042L372.017 149.042V147.042H370.017ZM199.983 170.209L201.412 171.608L201.983 171.025V170.209H199.983ZM177.763 170.209H175.763V171.061L176.378 171.652L177.763 170.209ZM177.763 113.258L176.349 111.843L175.763 112.429V113.258H177.763ZM199.983 113.258H201.983V112.378L201.335 111.784L199.983 113.258ZM172.932 168.348C174.037 168.348 174.932 167.452 174.932 166.348C174.932 165.243 174.037 164.348 172.932 164.348V168.348ZM166.169 166.348H164.169C164.169 167.452 165.065 168.348 166.169 168.348V166.348ZM166.169 116.154V114.154C165.065 114.154 164.169 115.049 164.169 116.154H166.169ZM172.932 118.154C174.037 118.154 174.932 117.258 174.932 116.154C174.932 115.049 174.037 114.154 172.932 114.154V118.154ZM152.644 131.598V129.598C151.539 129.598 150.644 130.493 150.644 131.598H152.644ZM152.644 155.73H150.644L152.644 157.73V155.73ZM157.475 157.73C158.579 157.73 159.475 156.834 159.475 155.73C159.475 154.625 158.579 153.73 157.475 153.73V157.73ZM370.017 113.258L368.603 111.843L368.017 112.429V113.258H370.017ZM392.237 113.257H394.237V112.406L393.623 111.815L392.237 113.257ZM392.237 170.209L393.649 171.625L394.237 171.039V170.209H392.237ZM370.017 170.209H368.017V171.085L368.661 171.678L370.017 170.209ZM372.017 158.625C372.017 157.521 371.121 156.625 370.017 156.625C368.912 156.625 368.017 157.521 368.017 158.625H372.017ZM397.068 114.153C395.963 114.153 395.068 115.049 395.068 116.153C395.068 117.258 395.963 118.153 397.068 118.153V114.153ZM404.797 116.153H406.797V114.153H404.797V116.153ZM404.797 166.347V168.347H406.797V166.347H404.797ZM397.068 164.347C395.963 164.347 395.068 165.243 395.068 166.347C395.068 167.452 395.963 168.347 397.068 168.347V164.347ZM416.39 131.598H418.39C418.39 130.493 417.494 129.598 416.39 129.598V131.598ZM416.39 155.729V157.729L418.39 155.729H416.39ZM411.559 129.598C410.455 129.598 409.559 130.493 409.559 131.598C409.559 132.702 410.455 133.598 411.559 133.598V129.598ZM305.288 145.042C304.184 145.042 303.288 145.937 303.288 147.042C303.288 148.147 304.184 149.042 305.288 149.042L305.288 145.042ZM303.356 135.389C302.251 135.389 301.356 136.285 301.356 137.389C301.356 138.494 302.251 139.389 303.356 139.389V135.389ZM262.78 149.042C263.884 149.042 264.78 148.146 264.78 147.042C264.78 145.937 263.884 145.042 262.78 145.042L262.78 149.042ZM264.712 139.389C265.816 139.389 266.712 138.494 266.712 137.389C266.712 136.285 265.816 135.389 264.712 135.389L264.712 139.389ZM370.017 147.042H372.017V137.389H370.017H368.017V147.042H370.017ZM199.983 137.389H197.983V170.209H199.983H201.983V137.389H199.983ZM199.983 170.209L198.554 168.81C195.635 171.792 193.587 173.831 191.949 175.117C190.301 176.411 189.411 176.661 188.791 176.627C188.118 176.589 187.202 176.195 185.556 174.817C183.928 173.453 181.976 171.481 179.148 168.766L177.763 170.209L176.378 171.652C179.079 174.245 181.222 176.404 182.988 177.883C184.737 179.348 186.516 180.507 188.569 180.621C190.674 180.737 192.543 179.736 194.419 178.263C196.304 176.783 198.545 174.538 201.412 171.608L199.983 170.209ZM177.763 170.209H179.763V113.258H177.763H175.763V170.209H177.763ZM177.763 113.258L179.176 114.672C181.864 111.987 183.712 110.073 185.251 108.78C186.794 107.484 187.659 107.144 188.315 107.125C188.98 107.105 189.93 107.401 191.672 108.68C193.395 109.947 195.556 111.912 198.631 114.732L199.983 113.258L201.335 111.784C198.323 109.022 195.979 106.881 194.04 105.457C192.119 104.046 190.249 103.066 188.197 103.127C186.136 103.188 184.386 104.283 182.678 105.718C180.966 107.156 178.926 109.268 176.349 111.843L177.763 113.258ZM199.983 113.258H197.983V137.389H199.983H201.983V113.258H199.983ZM172.932 166.348V164.348H166.169V166.348V168.348H172.932V166.348ZM166.169 116.154V118.154H172.932V116.154V114.154H166.169V116.154ZM166.169 166.348H168.169V131.598H166.169H164.169V166.348H166.169ZM166.169 131.598H168.169V116.154H166.169H164.169V131.598H166.169ZM166.169 131.598V129.598H152.644V131.598V133.598H166.169V131.598ZM152.644 131.598H150.644V155.73H152.644H154.644V131.598H152.644ZM152.644 155.73V157.73H157.475V155.73V153.73H152.644V155.73ZM370.017 137.389H372.017V113.258H370.017H368.017V137.389H370.017ZM370.017 113.258L371.431 114.672C372.826 113.277 374.013 112.029 375.035 110.951C376.068 109.862 376.908 108.974 377.652 108.251C379.225 106.72 379.956 106.367 380.437 106.324C380.865 106.286 381.652 106.456 383.455 107.88C385.206 109.263 387.483 111.462 390.851 114.699L392.237 113.257L393.623 111.815C390.333 108.652 387.878 106.276 385.934 104.74C384.04 103.245 382.167 102.153 380.08 102.34C378.046 102.522 376.406 103.882 374.863 105.383C374.048 106.176 373.143 107.133 372.133 108.198C371.112 109.274 369.958 110.489 368.603 111.843L370.017 113.258ZM392.237 113.257H390.237V170.209H392.237H394.237V113.257H392.237ZM392.237 170.209L390.825 168.792C387.813 171.795 385.823 173.884 384.227 175.271C382.598 176.688 381.854 176.925 381.395 176.919C380.896 176.912 380.093 176.615 378.357 175.166C376.662 173.751 374.557 171.677 371.373 168.739L370.017 170.209L368.661 171.678C371.693 174.477 374 176.74 375.794 178.237C377.547 179.701 379.312 180.891 381.34 180.919C383.407 180.947 385.151 179.768 386.851 178.29C388.584 176.783 390.766 174.499 393.649 171.625L392.237 170.209ZM370.017 170.209H372.017V158.625H370.017H368.017V170.209H370.017ZM397.068 116.153V118.153H404.797V116.153V114.153H397.068V116.153ZM404.797 166.347V164.347H397.068V166.347V168.347H404.797V166.347ZM404.797 116.153H402.797V131.598H404.797H406.797V116.153H404.797ZM416.39 131.598H414.39V155.729H416.39H418.39V131.598H416.39ZM404.797 131.598H402.797V155.729H404.797H406.797V131.598H404.797ZM404.797 155.729H402.797V166.347H404.797H406.797V155.729H404.797ZM416.39 155.729V153.729H404.797V155.729V157.729H416.39V155.729ZM416.39 131.598V129.598H411.559V131.598V133.598H416.39V131.598ZM305.288 147.042L305.288 149.042L370.017 149.042L370.017 147.042L370.017 145.042L305.288 145.042L305.288 147.042ZM370.017 137.389V135.389H303.356V137.389V139.389H370.017V137.389ZM209.644 147.042L209.644 149.042L262.78 149.042L262.78 147.042L262.78 145.042L209.644 145.042L209.644 147.042ZM264.712 137.389L264.712 135.389L199.983 135.389L199.983 137.389L199.983 139.389L264.712 139.389L264.712 137.389Z" fill="#1B0066"/>
<path d="M284.034 124.195C296.132 124.195 305.936 133.993 305.936 146.076C305.936 158.16 296.132 167.958 284.034 167.958C271.936 167.958 262.131 158.16 262.131 146.076C262.131 133.993 271.936 124.195 284.034 124.195Z" stroke="#1B0066" stroke-width="4.5"/>
<path d="M285.155 19.4443C376.442 19.4443 448.1 68.3925 498.283 120.345C523.049 145.996 541.941 171.965 554.643 191.448L554.652 191.464L554.663 191.48C560.195 199.619 564.632 206.94 567.72 212.16C564.978 217.537 561.148 224.301 556.457 232.496C545.01 251.643 527.371 277.282 503.858 302.919C456.203 353.891 384.551 403.486 285.155 403.486C187.313 403.486 116.354 355.428 68.7041 305.307L66.4531 302.919C43.6688 278.076 26.3998 253.232 14.9355 234.294L13.8447 232.479C8.85835 223.987 4.99316 216.895 2.24219 211.465C4.9946 206.032 8.86151 198.934 13.8516 190.437C25.299 171.289 42.9384 145.649 66.4521 120.011L66.4531 120.012C114.109 69.0397 185.76 19.4444 285.155 19.4443ZM285.155 44.4023C195.019 44.4024 129.549 89.1233 84.8047 136.946L84.791 136.962C62.6961 161.068 46.0834 185.212 35.3516 203.151L35.3467 203.158L35.3428 203.166C33.8186 205.763 32.4147 208.204 31.1299 210.482L30.5752 211.465L31.1299 212.447C32.4148 214.726 33.8185 217.168 35.3428 219.765L35.3467 219.771L35.3516 219.779C46.0835 237.719 62.6969 261.863 84.792 285.969L84.8057 285.984C129.55 333.807 195.02 378.527 285.155 378.527C375.291 378.527 440.761 333.806 485.506 285.983L485.513 285.977L485.52 285.969C507.559 261.923 524.145 237.839 534.879 219.914L534.89 219.896L534.899 219.88C536.107 217.769 537.233 215.796 538.278 213.952L538.876 212.899L538.22 211.882C536.899 209.834 535.488 207.698 533.995 205.501L533.839 205.271L533.707 205.068C521.61 186.512 503.68 161.885 480.302 137.672H480.301C432.533 88.221 366.945 44.4023 285.155 44.4023Z" stroke="#1B0066" stroke-width="4"/>
<path d="M58.5861 391.007H108.203V419H58.5861C39.9313 416.289 33.1353 410.953 30.915 391.007V341.778H58.5861V391.007Z" stroke="#1B0066" stroke-width="4"/>
<path d="M58.5861 29.993H108.203V1.99995H58.5861C39.9313 4.71145 33.1353 10.0473 30.915 29.993V79.2222H58.5861V29.993Z" stroke="#1B0066" stroke-width="4"/>
<path d="M511.413 29.993H461.796V1.99995H511.413C530.068 4.71145 536.864 10.0473 539.084 29.993V79.2222H511.413V29.993Z" stroke="#1B0066" stroke-width="4"/>
<path d="M511.413 391.007H461.796V419H511.413C530.068 416.289 536.864 410.953 539.084 391.007V341.778H511.413V391.007Z" stroke="#1B0066" stroke-width="4"/>
</svg>
